<?xml version="1.0" standalone="no"?>
<!DOCTYPE svg PUBLIC "-//W3C//DTD SVG 20010904//EN"
 "http://www.w3.org/TR/2001/REC-SVG-20010904/DTD/svg10.dtd">
<svg version="1.0" xmlns="http://www.w3.org/2000/svg"
 width="846.000000pt" height="846.000000pt" viewBox="0 0 846.000000 846.000000"
 preserveAspectRatio="xMidYMid meet">

<g transform="translate(0.000000,846.000000) scale(0.100000,-0.100000)"
fill="#004f6e" stroke="none">
<path d="M3965 8279 c-1270 -71 -2443 -742 -3159 -1808 -592 -881 -817 -1967
-625 -3016 279 -1527 1419 -2779 2914 -3198 680 -191 1393 -204 2081 -37 161
40 474 143 619 204 1014 432 1808 1246 2213 2266 381 961 381 2049 0 3010
-405 1020 -1199 1834 -2213 2266 -152 64 -461 165 -635 207 -260 62 -462 92
-740 107 -202 11 -246 11 -455 -1z m561 -499 c340 -27 678 -109 1040 -251 257
-101 490 -230 726 -402 339 -247 558 -461 798 -782 384 -511 610 -1080 692
-1735 18 -141 18 -689 0 -830 -69 -554 -254 -1076 -537 -1516 -137 -213 -393
-527 -546 -668 -269 -249 -600 -483 -888 -628 -277 -140 -696 -273 -1029 -327
-360 -59 -887 -53 -1242 14 -208 39 -512 129 -720 213 -472 190 -973 551
-1322 952 -388 447 -632 910 -777 1471 -88 339 -106 496 -106 904 0 408 18
565 106 904 149 577 393 1033 805 1501 338 384 832 736 1294 922 354 142 723
230 1095 261 97 8 494 6 611 -3z"/>
<path d="M3915 6963 c-244 -22 -612 -121 -799 -215 -178 -89 -188 -109 -194
-371 -5 -264 16 -404 72 -460 31 -31 81 -21 220 44 213 99 380 154 546 179
110 16 359 14 463 -5 389 -69 626 -345 656 -762 31 -434 -129 -747 -452 -882
-99 -41 -203 -59 -397 -70 -183 -9 -217 -20 -278 -82 -50 -51 -64 -106 -69
-266 -5 -136 22 -984 33 -1050 8 -50 48 -90 107 -108 67 -21 333 -34 481 -24
173 12 265 41 308 99 16 22 20 63 33 380 8 195 15 378 15 407 l0 51 62 7 c156
18 373 88 518 167 141 76 247 160 354 277 250 275 377 639 376 1079 -1 547
-202 983 -584 1269 -115 85 -328 195 -475 243 -110 36 -298 75 -433 89 -89 10
-469 13 -563 4z"/>
<path d="M3983 2470 c-158 -29 -264 -106 -317 -235 -30 -70 -46 -201 -46 -364
1 -356 72 -492 293 -563 88 -29 376 -37 497 -14 189 35 288 122 335 291 22 80
32 370 16 487 -29 218 -119 334 -296 384 -70 19 -396 29 -482 14z"/>
</g>
</svg>
